<svg width="27" height="31" viewBox="0 0 27 31" fill="none" xmlns="http://www.w3.org/2000/svg">
<path d="M25.8768 10.125H1.03308C0.622925 10.125 0.329956 9.83203 0.329956 9.42188V7.3125C0.329956 5.78906 1.56042 4.5 3.14246 4.5H5.95496V1.45312C5.95496 1.10156 6.24792 0.75 6.65808 0.75H9.00183C9.35339 0.75 9.70496 1.10156 9.70496 1.45312V4.5H17.205V1.45312C17.205 1.10156 17.4979 0.75 17.9081 0.75H20.2518C20.6034 0.75 20.955 1.10156 20.955 1.45312V4.5H23.7675C25.2909 4.5 26.58 5.78906 26.58 7.3125V9.42188C26.58 9.83203 26.2284 10.125 25.8768 10.125ZM1.03308 12H25.8768C26.2284 12 26.58 12.3516 26.58 12.7031V27.9375C26.58 29.5195 25.2909 30.75 23.7675 30.75H3.14246C1.56042 30.75 0.329956 29.5195 0.329956 27.9375V12.7031C0.329956 12.3516 0.622925 12 1.03308 12ZM20.5448 17.625L18.9042 15.9844C18.6112 15.6914 18.1425 15.6914 17.9081 15.9844L11.6971 22.1367L9.00183 19.4414C8.70886 19.1484 8.24011 19.1484 8.00574 19.4414L6.30652 21.082C6.07214 21.375 6.07214 21.7852 6.30652 22.0781L11.1698 26.9414C11.4042 27.2344 11.8729 27.2344 12.1659 26.9414L20.5448 18.6211C20.7792 18.3867 20.7792 17.918 20.5448 17.625Z" fill="#17B574"/>
</svg>
