<svg width="35" height="31" viewBox="0 0 35 31" fill="none" xmlns="http://www.w3.org/2000/svg">
<path d="M31.2675 18.4453C31.0917 19.0898 30.5057 19.5 29.8612 19.5H12.6932L13.1034 21.375H28.8065C29.6854 21.375 30.3885 22.2539 30.1542 23.1328L29.8612 24.5391C30.9745 25.0664 31.7362 26.1797 31.7362 27.4688C31.7362 29.2852 30.2128 30.75 28.455 30.75C26.6385 30.75 25.1737 29.2852 25.1737 27.4688C25.1737 26.5898 25.5253 25.7695 26.1112 25.125H13.8651C14.451 25.7695 14.8612 26.5898 14.8612 27.4688C14.8612 29.2852 13.3378 30.75 11.58 30.75C9.76355 30.75 8.29871 29.2852 8.29871 27.4688C8.29871 26.2969 8.94324 25.2422 9.93933 24.6562L5.77917 4.5H1.73621C0.915894 4.5 0.329956 3.91406 0.329956 3.09375V2.15625C0.329956 1.39453 0.915894 0.75 1.73621 0.75H7.71277C8.3573 0.75 8.94324 1.27734 9.11902 1.92188L9.64636 4.5H32.6151C33.5526 4.5 34.1971 5.37891 34.0214 6.25781L31.2675 18.4453Z" fill="#17B574"/>
</svg>
