<svg width="39" height="31" viewBox="0 0 39 31" fill="none" xmlns="http://www.w3.org/2000/svg">
<path d="M37.2225 12.9375C37.6912 12.9375 38.16 13.4062 38.16 13.875V15.75C38.16 16.2773 37.6912 16.6875 37.2225 16.6875H33.4725V20.4375C33.4725 20.9648 33.0037 21.375 32.535 21.375H30.66C30.1326 21.375 29.7225 20.9648 29.7225 20.4375V16.6875H25.9725C25.4451 16.6875 25.035 16.2773 25.035 15.75V13.875C25.035 13.4062 25.4451 12.9375 25.9725 12.9375H29.7225V9.1875C29.7225 8.71875 30.1326 8.25 30.66 8.25H32.535C33.0037 8.25 33.4725 8.71875 33.4725 9.1875V12.9375H37.2225ZM13.785 15.75C9.62482 15.75 6.28497 12.4102 6.28497 8.25C6.28497 4.14844 9.62482 0.75 13.785 0.75C17.8865 0.75 21.285 4.14844 21.285 8.25C21.285 12.4102 17.8865 15.75 13.785 15.75ZM18.9998 17.625C23.3358 17.625 26.91 21.1992 26.91 25.5352V27.9375C26.91 29.5195 25.6209 30.75 24.0975 30.75H3.47247C1.89044 30.75 0.659973 29.5195 0.659973 27.9375V25.5352C0.659973 21.1992 4.1756 17.625 8.51154 17.625H9.50763C10.7967 18.2695 12.2615 18.5625 13.785 18.5625C15.3084 18.5625 16.7147 18.2695 18.0037 17.625H18.9998Z" fill="#17B574"/>
</svg>
