<svg width="30" height="31" viewBox="0 0 30 31" fill="none" xmlns="http://www.w3.org/2000/svg">
<path d="M11.25 12.9375V19.5C11.25 20.5547 10.3711 21.375 9.375 21.375H8.4375C6.32812 21.375 4.6875 19.7344 4.6875 17.625V14.8125C4.6875 12.7617 6.32812 11.0625 8.4375 11.0625H9.375C10.3711 11.0625 11.25 11.9414 11.25 12.9375ZM21.5625 21.375H20.625C19.5703 21.375 18.75 20.5547 18.75 19.5V12.9375C18.75 11.9414 19.5703 11.0625 20.625 11.0625H21.5625C23.6133 11.0625 25.3125 12.7617 25.3125 14.8125V17.625C25.3125 19.7344 23.6133 21.375 21.5625 21.375ZM15 0.75C23.3203 0.75 29.707 7.72266 30 15.75V25.4766C30 28.4062 27.5977 30.75 24.668 30.75H14.0625C12.4805 30.75 11.25 29.5195 11.25 27.9375C11.25 26.4141 12.4805 25.125 14.0625 25.125H15.9375C17.4609 25.125 18.75 26.4141 18.75 27.9375H24.668C26.0742 27.9375 27.1875 26.8828 27.1875 25.4766C27.1875 25.4766 27.1289 15.9258 27.1289 15.75H27.1875C27.1875 9.07031 21.6797 3.5625 15 3.5625C8.26172 3.5625 2.8125 9.07031 2.8125 15.75V16.6875C2.8125 17.2148 2.34375 17.625 1.875 17.625H0.9375C0.410156 17.625 0 17.2148 0 16.6875V15.75C0.234375 7.72266 6.62109 0.75 15 0.75Z" fill="#17B574"/>
</svg>
