<svg width="39" height="20" viewBox="0 0 39 20" fill="none" xmlns="http://www.w3.org/2000/svg">
<path d="M9.56622 8.63672L10.2108 10.8047H7.9256L8.62872 8.63672C8.8045 7.93359 9.03888 6.64453 9.03888 6.64453H9.09747C9.09747 6.64453 9.33185 7.93359 9.56622 8.63672ZM36.7537 0.375C37.5154 0.375 38.16 1.01953 38.16 1.78125V17.7188C38.16 18.5391 37.5154 19.125 36.7537 19.125H20.3475V0.375H36.7537ZM35.3475 7.40625V6.46875C35.3475 6.11719 34.9959 5.76562 34.6443 5.76562H30.8943V4.82812C30.8943 4.47656 30.5428 4.125 30.1912 4.125H29.2537C28.8436 4.125 28.5506 4.47656 28.5506 4.82812V5.76562H24.8006C24.3904 5.76562 24.0975 6.11719 24.0975 6.46875V7.40625C24.0975 7.81641 24.3904 8.10938 24.8006 8.10938H31.4803C31.1287 8.98828 30.4842 9.80859 29.7225 10.6875C29.3123 10.2773 28.9608 9.86719 28.6678 9.45703C28.492 9.16406 28.0818 9.04688 27.7303 9.22266L27.3201 9.51562L26.9686 9.75C26.617 9.92578 26.4998 10.3945 26.7342 10.7461C27.0858 11.2148 27.4959 11.7422 27.9647 12.2109C27.4959 12.6211 26.9686 12.9727 26.4412 13.2656C26.0897 13.5 25.9725 13.9102 26.2068 14.2617L26.6756 15.0234C26.8514 15.375 27.2615 15.4922 27.6131 15.3164C28.3748 14.8477 29.0779 14.3789 29.7225 13.8516C30.367 14.3789 31.0115 14.8477 31.7733 15.3164C32.1248 15.4922 32.535 15.375 32.7693 15.0234L33.2381 14.2617C33.4139 13.9102 33.2967 13.5 33.0037 13.2656C32.4764 12.9727 31.949 12.6211 31.4217 12.2109C32.6522 10.9219 33.5311 9.51562 33.9412 8.10938H34.6443C34.9959 8.10938 35.3475 7.81641 35.3475 7.40625ZM0.659973 1.78125C0.659973 1.01953 1.24591 0.375 2.06622 0.375H18.4725V19.125H2.06622C1.24591 19.125 0.659973 18.5391 0.659973 17.7188V1.78125ZM4.05841 14.4961C3.94122 14.9062 4.29279 15.375 4.76154 15.375H6.10919C6.40216 15.375 6.69513 15.1992 6.75372 14.9062L7.28107 13.0312H10.8553L11.3826 14.9062C11.4412 15.1992 11.7342 15.375 12.0272 15.375H13.3748C13.9022 15.375 14.1951 14.9062 14.0779 14.4961L10.6795 4.53516C10.6209 4.30078 10.3279 4.06641 10.035 4.06641H8.10138C7.80841 4.06641 7.57404 4.30078 7.45685 4.53516L4.05841 14.4961Z" fill="#17B574"/>
</svg>
