<svg width="50" height="50" viewBox="0 0 50 50" fill="none" xmlns="http://www.w3.org/2000/svg">
<rect width="50" height="50" rx="8" fill="#17B574"/>
<path d="M16.2598 14.1381H11.6505V25.161H16.2598V14.1381Z" fill="white"/>
<path d="M18.4364 25.161V22.0853L25.0421 17.4239V17.21H18.7083V14.1381H30.9681V17.21L24.367 21.8751V22.0853H31.24V25.161H18.4364Z" fill="white"/>
<path d="M37.8979 14.1381H33.2886V25.161H37.8979V14.1381Z" fill="white"/>
<path d="M38.0597 9.38511H11.8123V12.7223H38.0597V9.38511Z" fill="url(#paint0_linear_2326_20985)"/>
<path d="M12.1359 38.9355V31.1292H13.5628V38.9355H12.1359Z" fill="white"/>
<path d="M18.3384 36.5936H19.8273C19.8852 36.8538 20.0052 37.088 20.1872 37.2962C20.5842 37.7572 21.1881 37.9876 21.9987 37.9876C22.6522 37.9876 23.1361 37.8835 23.4504 37.6754C23.7648 37.4598 23.9219 37.1735 23.9219 36.8167C23.9219 36.5342 23.7772 36.3074 23.4877 36.1364C23.2064 35.9654 22.8011 35.8167 22.2717 35.6903C21.2377 35.4524 20.5429 35.2554 20.1872 35.0993C19.2028 34.6904 18.7106 34.0733 18.7106 33.2481C18.7106 32.6161 19.0084 32.0697 19.604 31.6087C20.1996 31.1403 20.9771 30.9062 21.9367 30.9062C23.2106 30.9062 24.1577 31.289 24.7781 32.0548C25.0428 32.3819 25.233 32.7611 25.3488 33.1923H23.8599C23.802 32.9841 23.6986 32.7983 23.5497 32.6347C23.2023 32.263 22.6646 32.0771 21.9367 32.0771C21.3742 32.0771 20.944 32.1812 20.6463 32.3894C20.3485 32.5975 20.1996 32.8652 20.1996 33.1923C20.1996 33.683 20.7497 34.0621 21.8498 34.3298C21.9408 34.3521 22.1145 34.3967 22.371 34.4636C22.6274 34.5231 22.8094 34.5714 22.9169 34.6086C23.0327 34.6383 23.2064 34.6904 23.438 34.7647C23.6779 34.8316 23.8558 34.8948 23.9716 34.9543C24.0874 35.0138 24.2363 35.0918 24.4183 35.1885C24.6002 35.2777 24.7367 35.3744 24.8277 35.4784C24.927 35.5751 25.0262 35.6866 25.1255 35.813C25.233 35.9394 25.3075 36.0844 25.3488 36.2479C25.3902 36.4041 25.4109 36.575 25.4109 36.7609C25.4109 37.43 25.1007 37.9988 24.4803 38.4672C23.8682 38.9281 23.041 39.1586 21.9987 39.1586C20.609 39.1586 19.5875 38.7311 18.934 37.8761C18.6362 37.5118 18.4377 37.0843 18.3384 36.5936Z" fill="white"/>
<path d="M30.2441 38.9355V31.1292H31.671V34.3632H35.9517V31.1292H37.3786V38.9355H35.9517V35.59H31.671V38.9355H30.2441Z" fill="white"/>
<defs>
<linearGradient id="paint0_linear_2326_20985" x1="11.8123" y1="11.0537" x2="38.0597" y2="11.0537" gradientUnits="userSpaceOnUse">
<stop offset="0.19" stop-color="white"/>
<stop offset="0.26" stop-color="#F4FAFA"/>
<stop offset="0.38" stop-color="#D9ECEC"/>
<stop offset="0.53" stop-color="#ADD6D6"/>
<stop offset="0.71" stop-color="#1BCC83"/>
<stop offset="0.826923" stop-color="#1BC57F"/>
<stop offset="1" stop-color="#17B574"/>
</linearGradient>
</defs>
</svg>
