<svg width="23" height="31" viewBox="0 0 23 31" fill="none" xmlns="http://www.w3.org/2000/svg">
<path d="M19.6875 4.5C21.2109 4.5 22.5 5.78906 22.5 7.3125V27.9375C22.5 29.5195 21.2109 30.75 19.6875 30.75H2.8125C1.23047 30.75 0 29.5195 0 27.9375V7.3125C0 5.78906 1.23047 4.5 2.8125 4.5H7.5C7.5 2.44922 9.14062 0.75 11.25 0.75C13.3008 0.75 15 2.44922 15 4.5H19.6875ZM5.625 25.5938C6.38672 25.5938 7.03125 25.0078 7.03125 24.1875C7.03125 23.4258 6.38672 22.7812 5.625 22.7812C4.80469 22.7812 4.21875 23.4258 4.21875 24.1875C4.21875 25.0078 4.80469 25.5938 5.625 25.5938ZM5.625 19.9688C6.38672 19.9688 7.03125 19.3828 7.03125 18.5625C7.03125 17.8008 6.38672 17.1562 5.625 17.1562C4.80469 17.1562 4.21875 17.8008 4.21875 18.5625C4.21875 19.3828 4.80469 19.9688 5.625 19.9688ZM5.625 14.3438C6.38672 14.3438 7.03125 13.7578 7.03125 12.9375C7.03125 12.1758 6.38672 11.5312 5.625 11.5312C4.80469 11.5312 4.21875 12.1758 4.21875 12.9375C4.21875 13.7578 4.80469 14.3438 5.625 14.3438ZM11.25 3.09375C10.4297 3.09375 9.84375 3.73828 9.84375 4.5C9.84375 5.32031 10.4297 5.90625 11.25 5.90625C12.0117 5.90625 12.6562 5.32031 12.6562 4.5C12.6562 3.73828 12.0117 3.09375 11.25 3.09375ZM18.75 24.6562V23.7188C18.75 23.4844 18.5156 23.25 18.2812 23.25H9.84375C9.55078 23.25 9.375 23.4844 9.375 23.7188V24.6562C9.375 24.9492 9.55078 25.125 9.84375 25.125H18.2812C18.5156 25.125 18.75 24.9492 18.75 24.6562ZM18.75 19.0312V18.0938C18.75 17.8594 18.5156 17.625 18.2812 17.625H9.84375C9.55078 17.625 9.375 17.8594 9.375 18.0938V19.0312C9.375 19.3242 9.55078 19.5 9.84375 19.5H18.2812C18.5156 19.5 18.75 19.3242 18.75 19.0312ZM18.75 13.4062V12.4688C18.75 12.2344 18.5156 12 18.2812 12H9.84375C9.55078 12 9.375 12.2344 9.375 12.4688V13.4062C9.375 13.6992 9.55078 13.875 9.84375 13.875H18.2812C18.5156 13.875 18.75 13.6992 18.75 13.4062Z" fill="#17B574"/>
</svg>
